REM DIRINDEX 1\2\5,1\2\6,1\2\7,1\2\8,1\3\9,1\3\10,1\3\11,1\4\12,1\4\13,1\4\14,1\4\15,1\4\16
REM DIRNAME cjc034,folder01,folder02,folder03,folder04,folder05,folder06,folder07,folder08,folder09,folder10,folder11,folder12,folder13,folder14,folder15
TITLE ""
FILE "1200_sec01_0242_0251.mp3" MP3
  TRACK 01 AUDIO
    TITLE "0:"
    INDEX 01 00:00:00
  TRACK 02 AUDIO
    TITLE "12:cjc034_04602"
    INDEX 01 00:00:21
  TRACK 03 AUDIO
    TITLE "0:"
    INDEX 01 00:01:46
  TRACK 04 AUDIO
    TITLE "13:cjc034_04603"
    INDEX 01 00:02:04
  TRACK 05 AUDIO
    TITLE "0:"
    INDEX 01 00:04:23
  TRACK 06 AUDIO
    TITLE "14:cjc034_04604"
    INDEX 01 00:04:62
  TRACK 07 AUDIO
    TITLE "0:"
    INDEX 01 00:06:12
  TRACK 08 AUDIO
    TITLE "15:cjc034_04605"
    INDEX 01 00:06:43
  TRACK 09 AUDIO
    TITLE "0:"
    INDEX 01 00:09:73
  TRACK 10 AUDIO
    TITLE "12:cjc034_04606"
    INDEX 01 00:11:37
  TRACK 11 AUDIO
    TITLE "0:"
    INDEX 01 00:13:12
  TRACK 12 AUDIO
    TITLE "13:cjc034_04607"
    INDEX 01 00:13:43
  TRACK 13 AUDIO
    TITLE "0:"
    INDEX 01 00:14:56
  TRACK 14 AUDIO
    TITLE "14:cjc034_04608"
    INDEX 01 00:15:19
  TRACK 15 AUDIO
    TITLE "0:"
    INDEX 01 00:16:67
  TRACK 16 AUDIO
    TITLE "15:cjc034_04609"
    INDEX 01 00:17:25
  TRACK 17 AUDIO
    TITLE "0:"
    INDEX 01 00:20:57
  TRACK 18 AUDIO
    TITLE "12:cjc034_04610"
    INDEX 01 00:22:15
  TRACK 19 AUDIO
    TITLE "0:"
    INDEX 01 00:24:12
  TRACK 20 AUDIO
    TITLE "13:cjc034_04611"
    INDEX 01 00:24:49
  TRACK 21 AUDIO
    TITLE "0:"
    INDEX 01 00:25:60
  TRACK 22 AUDIO
    TITLE "14:cjc034_04612"
    INDEX 01 00:26:20
  TRACK 23 AUDIO
    TITLE "0:"
    INDEX 01 00:28:21
  TRACK 24 AUDIO
    TITLE "15:cjc034_04613"
    INDEX 01 00:28:55
  TRACK 25 AUDIO
    TITLE "0:"
    INDEX 01 00:32:03
  TRACK 26 AUDIO
    TITLE "12:cjc034_04614"
    INDEX 01 00:33:36
  TRACK 27 AUDIO
    TITLE "0:"
    INDEX 01 00:35:39
  TRACK 28 AUDIO
    TITLE "13:cjc034_04615"
    INDEX 01 00:35:70
  TRACK 29 AUDIO
    TITLE "0:"
    INDEX 01 00:37:69
  TRACK 30 AUDIO
    TITLE "14:cjc034_04616"
    INDEX 01 00:38:30
  TRACK 31 AUDIO
    TITLE "0:"
    INDEX 01 00:40:32
  TRACK 32 AUDIO
    TITLE "15:cjc034_04617"
    INDEX 01 00:40:62
  TRACK 33 AUDIO
    TITLE "0:"
    INDEX 01 00:44:38
  TRACK 34 AUDIO
    TITLE "12:cjc034_04618"
    INDEX 01 00:45:71
  TRACK 35 AUDIO
    TITLE "0:"
    INDEX 01 00:47:50
  TRACK 36 AUDIO
    TITLE "13:cjc034_04619"
    INDEX 01 00:48:06
  TRACK 37 AUDIO
    TITLE "0:"
    INDEX 01 00:52:08
  TRACK 38 AUDIO
    TITLE "14:cjc034_04620"
    INDEX 01 00:52:41
  TRACK 39 AUDIO
    TITLE "0:"
    INDEX 01 00:54:19
  TRACK 40 AUDIO
    TITLE "15:cjc034_04621"
    INDEX 01 00:54:52
  TRACK 41 AUDIO
    TITLE "0:"
    INDEX 01 00:59:24
  TRACK 42 AUDIO
    TITLE "12:cjc034_04622"
    INDEX 01 01:00:57
  TRACK 43 AUDIO
    TITLE "0:"
    INDEX 01 01:02:26
  TRACK 44 AUDIO
    TITLE "13:cjc034_04623"
    INDEX 01 01:02:57
  TRACK 45 AUDIO
    TITLE "0:"
    INDEX 01 01:03:69
  TRACK 46 AUDIO
    TITLE "14:cjc034_04624"
    INDEX 01 01:04:29
  TRACK 47 AUDIO
    TITLE "0:"
    INDEX 01 01:05:71
  TRACK 48 AUDIO
    TITLE "15:cjc034_04625"
    INDEX 01 01:06:28
  TRACK 49 AUDIO
    TITLE "0:"
    INDEX 01 01:10:53
  TRACK 50 AUDIO
    TITLE "12:cjc034_04626"
    INDEX 01 01:12:11
  TRACK 51 AUDIO
    TITLE "0:"
    INDEX 01 01:15:01
  TRACK 52 AUDIO
    TITLE "13:cjc034_04627"
    INDEX 01 01:15:35
  TRACK 53 AUDIO
    TITLE "0:"
    INDEX 01 01:17:12
  TRACK 54 AUDIO
    TITLE "14:cjc034_04628"
    INDEX 01 01:17:43
  TRACK 55 AUDIO
    TITLE "0:"
    INDEX 01 01:20:32
  TRACK 56 AUDIO
    TITLE "15:cjc034_04629"
    INDEX 01 01:20:67
  TRACK 57 AUDIO
    TITLE "0:"
    INDEX 01 01:24:53
  TRACK 58 AUDIO
    TITLE "12:cjc034_04630"
    INDEX 01 01:26:11
  TRACK 59 AUDIO
    TITLE "0:"
    INDEX 01 01:27:30
  TRACK 60 AUDIO
    TITLE "13:cjc034_04631"
    INDEX 01 01:27:61
  TRACK 61 AUDIO
    TITLE "0:"
    INDEX 01 01:30:69
  TRACK 62 AUDIO
    TITLE "14:cjc034_04632"
    INDEX 01 01:31:26
  TRACK 63 AUDIO
    TITLE "0:"
    INDEX 01 01:32:43
  TRACK 64 AUDIO
    TITLE "15:cjc034_04633"
    INDEX 01 01:33:03
  TRACK 65 AUDIO
    TITLE "0:"
    INDEX 01 01:36:60
  TRACK 66 AUDIO
    TITLE "12:cjc034_04634"
    INDEX 01 01:38:18
  TRACK 67 AUDIO
    TITLE "0:"
    INDEX 01 01:39:39
  TRACK 68 AUDIO
    TITLE "13:cjc034_04635"
    INDEX 01 01:39:70
  TRACK 69 AUDIO
    TITLE "0:"
    INDEX 01 01:41:32
  TRACK 70 AUDIO
    TITLE "14:cjc034_04636"
    INDEX 01 01:41:63
  TRACK 71 AUDIO
    TITLE "0:"
    INDEX 01 01:43:11
  TRACK 72 AUDIO
    TITLE "15:cjc034_04637"
    INDEX 01 01:43:41
  TRACK 73 AUDIO
    TITLE "0:"
    INDEX 01 01:47:27
  TRACK 74 AUDIO
    TITLE "12:cjc034_04638"
    INDEX 01 01:48:60
  TRACK 75 AUDIO
    TITLE "0:"
    INDEX 01 01:50:13
  TRACK 76 AUDIO
    TITLE "13:cjc034_04639"
    INDEX 01 01:50:45
  TRACK 77 AUDIO
    TITLE "0:"
    INDEX 01 01:51:46
  TRACK 78 AUDIO
    TITLE "14:cjc034_04640"
    INDEX 01 01:52:04
  TRACK 79 AUDIO
    TITLE "0:"
    INDEX 01 01:53:31
  TRACK 80 AUDIO
    TITLE "15:cjc034_04641"
    INDEX 01 01:53:63
  TRACK 81 AUDIO
    TITLE "0:"
    INDEX 01 01:57:37
